<svg width="533" height="438" viewBox="0 0 533 438" fill="none" xmlns="http://www.w3.org/2000/svg">
<g clip-path="url(#clip0_39_2)">
<path d="M433.773 44.021C437.178 30.1422 433.94 13.9563 422.938 4.82728C422.723 20.3656 417.014 35.3271 406.821 47.0646C402.874 51.577 398.014 56.1853 397.822 62.1753C397.703 65.9025 399.524 69.4824 402.033 72.2428C404.542 75.0032 407.708 77.069 410.836 79.1033L411.295 79.9131C421.364 69.765 430.367 57.8998 433.773 44.021Z" fill="#272727"/>
<path d="M422.716 5.03005C426.936 16.081 427.564 28.1795 424.51 39.6071C423.896 42.0789 422.896 44.4385 421.547 46.5992C420.165 48.6616 418.255 50.3164 416.016 51.3919C413.949 52.4366 411.713 53.2659 409.936 54.7945C409.038 55.5905 408.318 56.5671 407.825 57.6604C407.331 58.7537 407.074 59.939 407.071 61.1385C406.985 64.127 407.979 66.9681 409.047 69.7127C410.234 72.7601 411.515 75.9066 411.241 79.2431C411.207 79.6473 411.837 79.6752 411.87 79.2716C412.347 73.4667 408.402 68.5635 407.776 62.9331C407.484 60.3058 407.982 57.5748 409.927 55.6592C411.627 53.9842 413.931 53.127 416.034 52.0873C418.233 51.0702 420.15 49.5304 421.616 47.6024C423.071 45.5174 424.16 43.2001 424.837 40.7499C426.449 35.2581 427.186 29.5471 427.023 23.8264C426.872 17.2963 425.604 10.8401 423.275 4.73709C423.13 4.35941 422.573 4.65483 422.716 5.03003V5.03005Z" fill="white"/>
<path d="M425.71 35.9853C427.698 36.237 429.712 35.7742 431.39 34.6796C433.069 33.5851 434.303 31.93 434.873 30.01C434.987 29.6211 434.387 29.4259 434.273 29.8153C433.746 31.6042 432.596 33.1458 431.031 34.1618C429.466 35.1779 427.589 35.6015 425.738 35.3561C425.336 35.3033 425.31 35.9328 425.71 35.9853V35.9853Z" fill="white"/>
<path d="M417.134 51.0001C414.595 47.7871 413.362 43.7359 413.679 39.6543C413.711 39.25 413.081 39.222 413.05 39.6258C412.727 43.8738 414.019 48.0871 416.669 51.4249C416.922 51.7428 417.386 51.3164 417.134 51.0001V51.0001Z" fill="white"/>
<path d="M426.113 17.6457C425.323 17.7085 424.53 17.5743 423.805 17.2553C423.08 16.9362 422.446 16.4422 421.959 15.8177C421.71 15.4967 421.247 15.9235 421.494 16.2425C422.035 16.93 422.736 17.4747 423.536 17.8289C424.336 18.1832 425.211 18.3363 426.084 18.2748C426.167 18.2759 426.247 18.2455 426.308 18.1897C426.369 18.1339 426.407 18.057 426.413 17.9745C426.417 17.8912 426.387 17.8099 426.331 17.7483C426.274 17.6867 426.196 17.6499 426.113 17.6457V17.6457Z" fill="white"/>
<path d="M375.357 13.812C375.507 14.0169 375.656 14.2217 375.804 14.4316C377.8 17.1962 379.568 20.1181 381.091 23.1687C381.212 23.4027 381.332 23.6417 381.446 23.8787C385.035 31.2673 387.221 39.2575 387.891 47.4432C388.154 50.7007 388.17 53.9736 387.936 57.2334C387.614 61.7353 386.906 66.591 388.057 70.8122C388.172 71.2539 388.314 71.6881 388.483 72.1123L410.271 80.4103C410.33 80.4043 410.387 80.4034 410.446 80.3975L411.301 80.7685C411.325 80.6013 411.346 80.4272 411.37 80.26C411.384 80.163 411.393 80.0642 411.407 79.9672C411.415 79.9019 411.423 79.8366 411.434 79.7781C411.437 79.7564 411.439 79.7347 411.44 79.7179C411.451 79.6595 411.455 79.604 411.464 79.5506C411.584 78.5783 411.698 77.6034 411.805 76.626C411.807 76.621 411.807 76.621 411.804 76.6142C412.692 69.1742 412.694 61.6552 411.809 54.2148C411.78 53.9931 411.753 53.7665 411.713 53.5411C411.255 50.2223 410.527 46.9464 409.535 43.7462C408.986 41.9956 408.348 40.2739 407.625 38.5877C405.749 34.2344 403.198 30.2032 400.068 26.6418C393.826 19.5432 385.381 14.5181 376.069 13.8556C375.831 13.8389 375.598 13.8238 375.357 13.812Z" fill="#272727"/>
<path d="M375.301 14.107C385.329 20.3921 393.12 29.6746 397.568 40.636C398.567 42.9788 399.191 45.4643 399.416 48.0011C399.555 50.4793 399.027 52.9494 397.887 55.155C396.866 57.2327 395.581 59.2399 395.083 61.5295C394.846 62.7053 394.86 63.918 395.124 65.088C395.389 66.258 395.898 67.3589 396.618 68.3185C398.35 70.7564 400.856 72.4269 403.363 73.9754C406.146 75.6948 409.065 77.4366 410.856 80.2656C411.073 80.6083 411.593 80.2518 411.376 79.9095C408.259 74.9876 402.155 73.4463 398.262 69.3272C396.446 67.4051 395.198 64.9246 395.596 62.2256C395.944 59.8655 397.268 57.7946 398.32 55.6997C399.464 53.5645 400.066 51.182 400.075 48.7604C399.981 46.2204 399.454 43.715 398.518 41.3515C396.496 35.997 393.643 30.9936 390.065 26.5244C386.01 21.4012 381.108 17.0088 375.57 13.5374C375.227 13.3226 374.961 13.8937 375.301 14.107V14.107Z" fill="white"/>
<path d="M396.344 37.0223C398.083 36.027 399.412 34.4464 400.092 32.5628C400.773 30.6791 400.761 28.615 400.059 26.7391C399.916 26.3601 399.32 26.5648 399.463 26.9444C400.12 28.69 400.131 30.6127 399.493 32.3654C398.856 34.1182 397.613 35.5856 395.987 36.5028C395.634 36.7025 395.993 37.2209 396.344 37.0223Z" fill="white"/>
<path d="M398.544 54.1696C394.581 53.1316 391.155 50.6391 388.949 47.1891C388.73 46.8471 388.211 47.2036 388.429 47.5452C390.731 51.131 394.302 53.7176 398.428 54.7887C398.822 54.8905 398.935 54.2709 398.544 54.1696V54.1696Z" fill="white"/>
<path d="M385.614 22.1368C385.022 22.662 384.308 23.0319 383.537 23.2133C382.766 23.3947 381.962 23.3818 381.197 23.176C380.805 23.0692 380.692 23.689 381.081 23.7951C381.927 24.0186 382.815 24.0317 383.668 23.8332C384.52 23.6347 385.311 23.2306 385.971 22.6563C386.038 22.6074 386.083 22.5349 386.098 22.4536C386.114 22.3723 386.097 22.2882 386.053 22.2185C386.005 22.15 385.932 22.103 385.85 22.0877C385.768 22.0724 385.683 22.09 385.614 22.1368V22.1368Z" fill="white"/>
<path d="M346.55 327.315C273.504 327.315 214.078 267.937 214.078 194.952C214.078 121.966 273.504 62.5885 346.55 62.5885C354.272 62.5876 361.98 63.2549 369.587 64.5832C369.682 64.5995 369.773 64.6344 369.854 64.6858C369.936 64.7373 370.006 64.8042 370.061 64.8829C370.117 64.9616 370.156 65.0504 370.177 65.1442C370.198 65.2381 370.2 65.3352 370.184 65.4299C370.167 65.5247 370.132 65.6152 370.08 65.6963C370.028 65.7775 369.961 65.8476 369.882 65.9028C369.804 65.9579 369.715 65.997 369.621 66.0177C369.527 66.0385 369.429 66.0405 369.335 66.0236C361.811 64.7102 354.187 64.0503 346.55 64.0511C274.311 64.0511 215.541 122.773 215.541 194.952C215.541 267.131 274.311 325.852 346.55 325.852C418.788 325.852 477.558 267.131 477.558 194.952C477.59 162.328 465.398 130.873 443.382 106.781C443.253 106.638 443.185 106.449 443.195 106.256C443.204 106.063 443.29 105.881 443.433 105.751C443.576 105.621 443.764 105.552 443.958 105.561C444.151 105.569 444.333 105.654 444.464 105.796C466.726 130.157 479.054 161.963 479.022 194.952C479.022 267.937 419.595 327.315 346.55 327.315Z" fill="url(#paint0_linear_39_2)"/>
<path d="M404.96 107.984C419.435 107.984 431.17 96.2596 431.17 81.7963C431.17 67.3329 419.435 55.6081 404.96 55.6081C390.485 55.6081 378.75 67.3329 378.75 81.7963C378.75 96.2596 390.485 107.984 404.96 107.984Z" fill="#76FF36"/>
<path d="M401.384 95.426C400.932 95.426 400.485 95.3207 400.081 95.1184C399.676 94.9161 399.324 94.6224 399.052 94.2605L391.902 84.7343C391.672 84.4283 391.505 84.08 391.41 83.7094C391.315 83.3389 391.294 82.9532 391.348 82.5745C391.402 82.1958 391.531 81.8315 391.726 81.5023C391.921 81.1732 392.179 80.8856 392.485 80.6561C392.791 80.4266 393.14 80.2596 393.511 80.1647C393.882 80.0698 394.268 80.0487 394.647 80.1029C395.026 80.157 395.39 80.2852 395.72 80.4801C396.049 80.675 396.337 80.9328 396.567 81.2388L401.245 87.4706L413.26 69.4633C413.69 68.8231 414.356 68.3793 415.113 68.2293C415.87 68.0793 416.656 68.2352 417.298 68.6629C417.94 69.0906 418.386 69.7552 418.538 70.511C418.691 71.2668 418.537 72.0522 418.111 72.6951L403.81 94.1287C403.552 94.5163 403.204 94.8364 402.796 95.0619C402.388 95.2875 401.932 95.412 401.466 95.425C401.439 95.4255 401.411 95.426 401.384 95.426Z" fill="#272727"/>
<path d="M343.142 174.411L302.724 62.0622L303.749 61.694L296.316 41.0301L295.291 41.3986L282.881 6.90415C282.417 5.61582 281.704 4.43131 280.783 3.41826C279.861 2.4052 278.749 1.58345 277.509 0.999914C276.27 0.416374 274.928 0.0824746 273.559 0.017289C272.19 -0.0478966 270.822 0.156905 269.533 0.619997L196.467 26.8625C195.177 27.3255 193.992 28.0378 192.978 28.9587C191.964 29.8795 191.141 30.9908 190.557 32.2293C189.973 33.4677 189.639 34.809 189.574 36.1764C189.509 37.5439 189.714 38.9109 190.177 40.1992L198.83 64.2508L197.21 64.874L202.734 79.2051L204.03 78.7062L205.177 81.894L203.797 82.4249L209.321 96.7561L210.377 96.3495L250.438 207.706C250.899 208.996 251.611 210.182 252.532 211.196C253.453 212.211 254.566 213.034 255.806 213.617C257.046 214.201 258.389 214.535 259.759 214.599C261.128 214.663 262.497 214.456 263.786 213.99L336.852 187.748C339.454 186.81 341.577 184.879 342.757 182.379C343.936 179.878 344.074 177.013 343.142 174.411Z" fill="#3F3D56"/>
<path d="M259.943 210.287C258.914 210.285 257.911 209.966 257.07 209.374C256.228 208.782 255.59 207.946 255.241 206.979L194.345 37.7044C193.896 36.4576 193.962 35.0839 194.527 33.8855C195.092 32.6871 196.111 31.762 197.358 31.3138L212.905 25.7302L212.881 26.2737C212.841 27.2171 213.034 28.1559 213.443 29.0072C213.852 29.8586 214.464 30.5964 215.225 31.1558C215.987 31.7152 216.874 32.0788 217.809 32.2148C218.744 32.3508 219.699 32.2548 220.588 31.9355L255.09 19.5439C255.922 19.1627 256.654 18.5909 257.224 17.8749C257.795 17.1588 258.189 16.3186 258.374 15.4222C258.558 14.5408 258.53 13.6285 258.293 12.7599C258.056 11.8912 257.618 11.0908 257.012 10.4239L256.648 10.0193L272.706 4.25149C273.954 3.80519 275.329 3.87159 276.528 4.43614C277.727 5.00069 278.653 6.0173 279.103 7.26304L337.203 168.765C338.389 172.073 338.213 175.717 336.714 178.896C335.215 182.075 332.515 184.53 329.206 185.722L261.637 209.99C261.094 210.186 260.521 210.287 259.943 210.287V210.287Z" fill="#272727"/>
<path d="M253.99 90.2243C264.904 90.2243 273.751 81.3843 273.751 70.4795C273.751 59.5748 264.904 50.7347 253.99 50.7347C243.076 50.7347 234.229 59.5748 234.229 70.4795C234.229 81.3843 243.076 90.2243 253.99 90.2243Z" fill="#05FF82"/>
<path d="M302.958 99.1931L234.524 123.772C234.311 123.849 234.084 123.883 233.857 123.873C233.63 123.863 233.407 123.808 233.201 123.711C232.995 123.614 232.811 123.478 232.658 123.31C232.505 123.142 232.386 122.946 232.309 122.732C232.232 122.518 232.198 122.291 232.209 122.065C232.22 121.838 232.276 121.615 232.373 121.41C232.47 121.204 232.607 121.02 232.775 120.868C232.944 120.715 233.141 120.597 233.355 120.521L301.788 95.9426C302.219 95.789 302.694 95.8125 303.108 96.008C303.521 96.2034 303.841 96.5548 303.995 96.9852C304.15 97.4155 304.128 97.8896 303.933 98.3035C303.739 98.7174 303.388 99.0374 302.958 99.1931V99.1931Z" fill="#BEFF9F"/>
<path d="M282.635 114.777L260.126 122.862C259.912 122.939 259.685 122.973 259.458 122.963C259.231 122.952 259.008 122.897 258.802 122.801C258.597 122.704 258.412 122.568 258.259 122.4C258.106 122.232 257.988 122.035 257.911 121.822C257.834 121.608 257.8 121.381 257.811 121.154C257.822 120.928 257.878 120.705 257.975 120.5C258.072 120.294 258.208 120.11 258.377 119.958C258.545 119.805 258.742 119.687 258.956 119.611L281.466 111.526C281.897 111.371 282.373 111.394 282.787 111.589C283.202 111.785 283.522 112.136 283.677 112.567C283.832 112.999 283.81 113.474 283.614 113.888C283.419 114.302 283.067 114.622 282.635 114.777V114.777Z" fill="#BEFF9F"/>
<path d="M287.989 129.659L265.48 137.744C265.266 137.821 265.039 137.855 264.813 137.844C264.586 137.833 264.363 137.778 264.158 137.681C263.953 137.584 263.768 137.448 263.616 137.28C263.463 137.113 263.345 136.916 263.268 136.703C263.191 136.489 263.157 136.263 263.168 136.036C263.179 135.81 263.234 135.588 263.331 135.382C263.428 135.177 263.564 134.993 263.732 134.841C263.9 134.688 264.097 134.57 264.31 134.493L286.82 126.409C287.251 126.254 287.727 126.276 288.141 126.472C288.556 126.667 288.876 127.019 289.031 127.45C289.186 127.881 289.164 128.356 288.968 128.77C288.773 129.185 288.421 129.504 287.989 129.659V129.659Z" fill="#BEFF9F"/>
<path d="M290.731 137.282L268.222 145.367C268.008 145.444 267.781 145.478 267.554 145.468C267.327 145.458 267.104 145.403 266.898 145.306C266.692 145.209 266.508 145.073 266.354 144.905C266.201 144.737 266.083 144.541 266.006 144.327C265.929 144.113 265.895 143.886 265.906 143.659C265.917 143.432 265.973 143.21 266.07 143.005C266.167 142.799 266.304 142.615 266.473 142.463C266.641 142.31 266.838 142.192 267.052 142.116L289.562 134.031C289.776 133.954 290.003 133.92 290.23 133.93C290.457 133.94 290.68 133.996 290.885 134.092C291.091 134.189 291.276 134.325 291.429 134.493C291.582 134.661 291.7 134.857 291.777 135.071C291.854 135.285 291.888 135.512 291.877 135.739C291.866 135.965 291.81 136.188 291.713 136.393C291.616 136.599 291.479 136.783 291.311 136.935C291.142 137.088 290.945 137.206 290.731 137.282L290.731 137.282Z" fill="#BEFF9F"/>
<path d="M297.899 117.58L250.141 134.732C249.927 134.81 249.7 134.844 249.473 134.834C249.246 134.823 249.023 134.768 248.818 134.672C248.612 134.575 248.427 134.439 248.274 134.271C248.121 134.103 248.003 133.906 247.926 133.693C247.849 133.479 247.815 133.252 247.826 133.025C247.837 132.798 247.893 132.576 247.99 132.371C248.087 132.165 248.224 131.981 248.392 131.829C248.561 131.676 248.757 131.558 248.972 131.482L296.729 114.329C296.943 114.252 297.17 114.217 297.397 114.228C297.624 114.238 297.847 114.293 298.053 114.39C298.259 114.486 298.443 114.623 298.596 114.791C298.749 114.959 298.868 115.155 298.944 115.369C299.021 115.583 299.055 115.809 299.044 116.036C299.033 116.263 298.978 116.486 298.881 116.691C298.784 116.896 298.647 117.081 298.478 117.233C298.31 117.386 298.113 117.503 297.899 117.58V117.58Z" fill="#BEFF9F"/>
<path d="M288.279 155.786L280.106 158.722C279.373 158.984 278.565 158.945 277.86 158.613C277.155 158.281 276.611 157.683 276.348 156.95C276.084 156.218 276.122 155.411 276.454 154.706C276.786 154.002 277.384 153.458 278.118 153.194L286.291 150.258C287.024 149.996 287.832 150.035 288.537 150.367C289.242 150.699 289.786 151.297 290.049 152.029C290.313 152.762 290.274 153.569 289.942 154.274C289.611 154.978 289.012 155.522 288.279 155.786V155.786Z" fill="#76FF36"/>
<path d="M223.872 26.2776C224.5 26.2776 225.009 25.7692 225.009 25.142C225.009 24.5147 224.5 24.0063 223.872 24.0063C223.244 24.0063 222.735 24.5147 222.735 25.142C222.735 25.7692 223.244 26.2776 223.872 26.2776Z" fill="white"/>
<path d="M93.1573 89.0152C105.896 74.0323 126.566 64.5898 145.622 69.4853C128.459 82.2522 116.369 100.673 111.49 121.49C109.638 129.524 108.415 138.654 101.886 143.696C97.8241 146.834 92.3618 147.692 87.2591 147.122C82.1562 146.553 77.2993 144.692 72.5078 142.848L71.2339 142.989C74.4385 123.592 80.4183 103.998 93.1573 89.0152Z" fill="#272727"/>
<path d="M145.574 69.895C129.842 74.1044 115.838 83.1595 105.55 95.7743C103.287 98.4507 101.46 101.467 100.137 104.711C98.9506 107.914 98.6439 111.375 99.249 114.736C99.7502 117.881 100.627 121.04 100.355 124.252C100.191 125.894 99.6812 127.483 98.8595 128.915C98.0378 130.346 96.9226 131.588 95.5869 132.559C92.3218 135.064 88.3505 136.247 84.4267 137.269C80.0701 138.405 75.527 139.515 72.0256 142.51C71.6013 142.873 71.0625 142.194 71.4861 141.832C77.5779 136.62 86.2296 137.062 93.0161 133.22C96.1828 131.427 98.8279 128.67 99.3977 124.96C99.8959 121.716 98.9942 118.457 98.4592 115.277C97.8208 112.007 97.9934 108.631 98.962 105.443C100.115 102.142 101.823 99.0602 104.011 96.3309C108.839 90.1081 114.616 84.6824 121.131 80.2527C128.538 75.1558 136.763 71.3626 145.451 69.0372C145.988 68.8935 146.108 69.7522 145.574 69.895H145.574Z" fill="white"/>
<path d="M108.623 91.5175C106.739 89.5056 105.632 86.89 105.5 84.1379C105.368 81.3858 106.22 78.6765 107.902 76.4937C108.244 76.0532 108.946 76.5635 108.603 77.0046C107.032 79.0343 106.24 81.5582 106.368 84.1206C106.496 86.6831 107.537 89.1154 109.302 90.9785C109.685 91.3839 109.004 91.9205 108.623 91.5175H108.623Z" fill="white"/>
<path d="M98.7847 113.175C104.417 113.413 109.931 111.521 114.229 107.876C114.654 107.515 115.193 108.194 114.768 108.555C110.289 112.339 104.546 114.296 98.686 114.036C98.1275 114.011 98.2292 113.15 98.7847 113.175V113.175Z" fill="white"/>
<path d="M128.76 76.2831C129.327 77.2133 130.116 77.9884 131.056 78.5387C131.997 79.089 133.059 79.3973 134.148 79.4359C134.707 79.454 134.605 80.3147 134.05 80.2967C132.846 80.2485 131.673 79.9066 130.633 79.3009C129.593 78.6952 128.717 77.8442 128.081 76.8221C128.013 76.7308 127.983 76.617 127.996 76.504C128.009 76.3909 128.064 76.287 128.151 76.2134C128.241 76.1425 128.356 76.11 128.47 76.1231C128.584 76.1361 128.688 76.1936 128.76 76.2831V76.2831Z" fill="white"/>
<path d="M173.957 129.728C173.608 129.726 173.259 129.725 172.906 129.729C168.212 129.735 163.527 130.121 158.896 130.885C158.537 130.939 158.174 130.998 157.817 131.062C146.68 133.02 136.003 137.028 126.33 142.881C122.483 145.214 118.819 147.836 115.37 150.724C110.607 154.712 105.761 159.416 100.123 161.537C99.5376 161.765 98.9384 161.956 98.329 162.11L71.5051 144.531C71.4642 144.461 71.419 144.396 71.3778 144.326L70.2747 143.673C70.4421 143.511 70.6193 143.347 70.7867 143.186C70.8835 143.092 70.9862 143.002 71.083 142.908C71.1494 142.847 71.2161 142.785 71.2725 142.726C71.2945 142.706 71.3168 142.685 71.3349 142.671C71.3913 142.612 71.4499 142.563 71.5023 142.509C72.4901 141.591 73.486 140.679 74.4901 139.771C74.4941 139.765 74.4941 139.765 74.5041 139.763C82.1724 132.868 90.4842 126.552 99.4911 121.698C99.7621 121.552 100.037 121.4 100.32 121.262C104.392 119.096 108.635 117.267 113.005 115.792C115.401 114.992 117.835 114.314 120.3 113.76C126.67 112.34 133.224 111.931 139.721 112.547C152.673 113.777 165.088 119.131 173.335 128.97C173.545 129.222 173.751 129.47 173.957 129.728Z" fill="#272727"/>
<path d="M173.674 130.028C158.577 123.925 141.939 122.731 126.123 126.614C122.704 127.39 119.428 128.699 116.416 130.494C113.539 132.337 111.209 134.916 109.667 137.964C108.172 140.776 106.968 143.826 104.815 146.227C103.695 147.439 102.331 148.401 100.812 149.05C99.2935 149.699 97.6547 150.019 96.0034 149.991C91.887 150.027 88.0031 148.582 84.2541 147.038C80.0915 145.324 75.7951 143.477 71.1945 143.763C70.6371 143.797 70.616 142.931 71.1726 142.896C79.1768 142.4 85.8184 147.957 93.5523 148.972C97.161 149.446 100.934 148.835 103.625 146.216C105.977 143.926 107.221 140.782 108.71 137.921C110.17 134.926 112.343 132.334 115.037 130.371C117.947 128.429 121.167 126.996 124.559 126.133C132.163 124.068 140.045 123.212 147.916 123.594C156.902 123.98 165.755 125.9 174.092 129.269C174.608 129.478 174.186 130.236 173.674 130.028L173.674 130.028Z" fill="white"/>
<path d="M131.142 125.064C130.85 122.324 131.542 119.57 133.095 117.293C134.648 115.017 136.961 113.365 139.619 112.635C140.158 112.489 140.41 113.318 139.871 113.464C137.394 114.14 135.24 115.678 133.798 117.801C132.357 119.924 131.722 122.493 132.009 125.042C132.071 125.596 131.203 125.615 131.142 125.064V125.064Z" fill="white"/>
<path d="M110.236 136.438C114.59 140.016 120.133 141.822 125.761 141.498C126.318 141.465 126.339 142.332 125.783 142.364C119.926 142.691 114.161 140.799 109.639 137.066C109.208 136.71 109.808 136.084 110.236 136.438H110.236Z" fill="white"/>
<path d="M156.4 125.014C156.292 126.098 156.455 127.191 156.874 128.196C157.293 129.201 157.956 130.087 158.802 130.773C159.237 131.123 158.637 131.749 158.205 131.401C157.273 130.639 156.543 129.66 156.077 128.55C155.611 127.441 155.425 126.234 155.533 125.036C155.534 124.922 155.578 124.813 155.656 124.731C155.735 124.648 155.842 124.599 155.956 124.592C156.07 124.59 156.181 124.633 156.265 124.712C156.348 124.791 156.397 124.899 156.4 125.014V125.014Z" fill="white"/>
<path d="M475.472 376.989C489.362 380.392 505.561 377.157 514.698 366.163C499.147 365.948 484.173 360.244 472.426 350.06C467.909 346.116 463.297 341.26 457.302 341.068C453.572 340.949 449.989 342.769 447.227 345.276C444.464 347.783 442.397 350.946 440.361 354.071L439.55 354.53C449.706 364.591 461.581 373.587 475.472 376.989Z" fill="#272727"/>
<path d="M514.495 365.942C503.435 370.159 491.326 370.786 479.889 367.734C477.415 367.121 475.054 366.122 472.891 364.774C470.827 363.393 469.171 361.485 468.095 359.248C467.049 357.182 466.219 354.948 464.689 353.172C463.893 352.275 462.915 351.556 461.821 351.063C460.727 350.569 459.541 350.313 458.34 350.309C455.349 350.224 452.506 351.217 449.759 352.285C446.709 353.47 443.56 354.75 440.221 354.476C439.816 354.443 439.788 355.072 440.192 355.105C446.002 355.582 450.909 351.639 456.544 351.014C459.173 350.722 461.907 351.22 463.824 353.163C465.5 354.862 466.358 357.164 467.399 359.265C468.417 361.463 469.958 363.378 471.887 364.843C473.974 366.297 476.293 367.385 478.745 368.061C484.242 369.672 489.957 370.409 495.683 370.245C502.218 370.094 508.68 368.828 514.788 366.5C515.166 366.356 514.87 365.799 514.495 365.942H514.495Z" fill="white"/>
<path d="M483.514 368.933C483.262 370.92 483.725 372.932 484.821 374.609C485.916 376.286 487.573 377.519 489.494 378.089C489.883 378.203 490.079 377.604 489.689 377.49C487.899 376.963 486.356 375.814 485.339 374.25C484.322 372.686 483.898 370.811 484.144 368.962C484.197 368.56 483.567 368.534 483.514 368.933V368.933Z" fill="white"/>
<path d="M468.487 360.365C471.703 357.828 475.757 356.595 479.842 356.913C480.247 356.944 480.275 356.315 479.871 356.283C475.619 355.961 471.402 357.252 468.062 359.9C467.744 360.152 468.17 360.616 468.487 360.365H468.487Z" fill="white"/>
<path d="M501.869 369.336C501.806 368.547 501.94 367.754 502.259 367.03C502.579 366.306 503.073 365.672 503.698 365.186C504.02 364.937 503.592 364.474 503.273 364.721C502.585 365.261 502.04 365.962 501.685 366.761C501.331 367.561 501.178 368.435 501.239 369.307C501.238 369.39 501.268 369.47 501.324 369.531C501.38 369.592 501.457 369.63 501.54 369.636C501.623 369.639 501.704 369.61 501.766 369.554C501.828 369.497 501.865 369.419 501.869 369.336V369.336Z" fill="white"/>
<path d="M505.706 318.622C505.501 318.772 505.296 318.921 505.086 319.069C502.319 321.063 499.394 322.83 496.341 324.351C496.107 324.472 495.868 324.592 495.631 324.706C488.236 328.292 480.239 330.476 472.047 331.145C468.787 331.409 465.511 331.424 462.249 331.191C457.743 330.869 452.883 330.161 448.659 331.311C448.217 331.426 447.782 331.568 447.357 331.737L439.053 353.507C439.059 353.566 439.06 353.623 439.065 353.682L438.694 354.536C438.862 354.56 439.036 354.581 439.203 354.605C439.3 354.619 439.399 354.628 439.496 354.643C439.561 354.651 439.627 354.658 439.685 354.669C439.707 354.672 439.729 354.674 439.746 354.675C439.804 354.686 439.86 354.69 439.913 354.699C440.886 354.819 441.862 354.933 442.84 355.04C442.845 355.042 442.845 355.042 442.852 355.039C450.298 355.927 457.823 355.928 465.27 355.044C465.492 355.015 465.718 354.988 465.944 354.948C469.265 354.491 472.544 353.763 475.747 352.771C477.499 352.223 479.222 351.586 480.91 350.864C485.266 348.988 489.301 346.44 492.865 343.312C499.97 337.076 504.999 328.638 505.662 319.334C505.679 319.096 505.694 318.862 505.706 318.622Z" fill="#272727"/>
<path d="M505.41 318.566C499.12 328.586 489.83 336.37 478.86 340.814C476.515 341.813 474.027 342.436 471.488 342.661C469.008 342.8 466.536 342.272 464.329 341.134C462.249 340.113 460.24 338.829 457.949 338.331C456.772 338.094 455.558 338.108 454.387 338.373C453.216 338.637 452.115 339.145 451.154 339.865C448.714 341.596 447.043 344.099 445.493 346.604C443.772 349.386 442.029 352.302 439.197 354.092C438.854 354.309 439.211 354.828 439.554 354.611C444.48 351.497 446.022 345.397 450.145 341.508C452.068 339.693 454.551 338.447 457.252 338.845C459.614 339.192 461.687 340.515 463.783 341.566C465.92 342.708 468.305 343.311 470.728 343.32C473.271 343.225 475.778 342.699 478.143 341.764C483.502 339.743 488.51 336.893 492.983 333.318C498.11 329.266 502.506 324.368 505.98 318.835C506.195 318.492 505.624 318.226 505.41 318.566H505.41Z" fill="white"/>
<path d="M482.476 339.591C483.472 341.329 485.054 342.657 486.939 343.337C488.825 344.017 490.89 344.005 492.768 343.304C493.147 343.161 492.942 342.565 492.562 342.708C490.815 343.364 488.891 343.375 487.137 342.738C485.383 342.101 483.914 340.859 482.996 339.235C482.796 338.883 482.277 339.241 482.476 339.591Z" fill="white"/>
<path d="M465.315 341.79C466.354 337.83 468.848 334.406 472.301 332.202C472.643 331.984 472.287 331.465 471.945 331.683C468.356 333.983 465.767 337.551 464.695 341.674C464.593 342.067 465.214 342.181 465.315 341.79Z" fill="white"/>
<path d="M497.374 328.871C496.848 328.279 496.478 327.565 496.296 326.795C496.115 326.024 496.128 325.221 496.334 324.457C496.441 324.065 495.82 323.952 495.714 324.341C495.49 325.187 495.477 326.074 495.676 326.926C495.875 327.777 496.279 328.567 496.854 329.227C496.903 329.294 496.975 329.339 497.057 329.354C497.138 329.369 497.222 329.353 497.292 329.309C497.361 329.261 497.408 329.188 497.423 329.106C497.438 329.025 497.421 328.94 497.374 328.871V328.871Z" fill="white"/>
<path d="M531.13 243.593L509.949 279.207L510.754 279.631L503.581 293.218L502.088 292.429L497.375 300.349L498.546 301.021L490.861 314.316L489.529 313.548L420.417 429.765C418.604 432.806 415.658 435.005 412.225 435.878C408.792 436.751 405.152 436.228 402.105 434.423L273.622 358.142C270.577 356.332 268.377 353.388 267.503 349.958C266.628 346.527 267.152 342.89 268.959 339.845L379.672 153.674C381.485 150.633 384.431 148.434 387.864 147.561C391.297 146.687 394.937 147.211 397.984 149.016L526.467 225.296C529.51 227.108 531.71 230.052 532.584 233.482C533.458 236.912 532.935 240.548 531.13 243.593V243.593Z" fill="#3F3D56"/>
<path d="M406.684 427.237L277.748 350.688C276.81 350.129 276.132 349.222 275.863 348.165C275.593 347.107 275.755 345.986 276.311 345.048L387.759 157.638C388.318 156.701 389.226 156.023 390.284 155.754C391.342 155.485 392.464 155.646 393.404 156.202L522.339 232.751C523.277 233.309 523.956 234.217 524.225 235.274C524.494 236.331 524.333 237.452 523.776 238.391L412.329 425.801C411.77 426.738 410.862 427.416 409.803 427.685C408.745 427.954 407.623 427.793 406.684 427.237Z" fill="#272727"/>
<path d="M459.647 191.514C460.275 191.514 460.784 191.006 460.784 190.379C460.784 189.752 460.275 189.243 459.647 189.243C459.019 189.243 458.51 189.752 458.51 190.379C458.51 191.006 459.019 191.514 459.647 191.514Z" fill="white"/>
<path d="M452.613 325.763L344.984 261.864C344.646 261.666 344.351 261.402 344.116 261.09C343.88 260.777 343.709 260.42 343.611 260.041C343.514 259.662 343.493 259.268 343.548 258.88C343.604 258.493 343.736 258.12 343.936 257.783C344.136 257.447 344.4 257.153 344.714 256.919C345.028 256.685 345.386 256.515 345.765 256.419C346.145 256.323 346.54 256.304 346.928 256.361C347.315 256.418 347.688 256.551 348.024 256.752L455.653 320.651C455.991 320.85 456.286 321.113 456.521 321.426C456.757 321.739 456.928 322.095 457.025 322.474C457.123 322.853 457.144 323.248 457.089 323.635C457.033 324.023 456.901 324.395 456.701 324.732C456.501 325.068 456.236 325.362 455.922 325.596C455.608 325.83 455.251 326 454.871 326.096C454.492 326.192 454.097 326.212 453.709 326.155C453.321 326.098 452.949 325.965 452.613 325.763H452.613Z" fill="#BEFF9F"/>
<path d="M409.637 315.862L374.235 294.844C373.899 294.644 373.606 294.381 373.372 294.068C373.137 293.755 372.967 293.4 372.871 293.021C372.774 292.643 372.753 292.249 372.809 291.862C372.865 291.476 372.997 291.104 373.196 290.768C373.396 290.433 373.66 290.139 373.973 289.906C374.286 289.672 374.642 289.502 375.021 289.406C375.4 289.309 375.794 289.288 376.181 289.344C376.567 289.4 376.94 289.532 377.276 289.731L412.678 310.749C413.014 310.949 413.307 311.213 413.541 311.525C413.775 311.838 413.945 312.194 414.042 312.572C414.138 312.951 414.159 313.344 414.103 313.731C414.047 314.117 413.916 314.489 413.716 314.825C413.516 315.16 413.252 315.454 412.939 315.687C412.626 315.921 412.27 316.091 411.892 316.187C411.513 316.284 411.119 316.305 410.732 316.249C410.345 316.193 409.973 316.062 409.637 315.862V315.862Z" fill="#BEFF9F"/>
<path d="M395.718 339.268L360.316 318.25C359.638 317.847 359.147 317.192 358.953 316.428C358.758 315.663 358.875 314.853 359.278 314.175C359.681 313.497 360.337 313.007 361.102 312.813C361.867 312.618 362.678 312.735 363.356 313.138L398.758 334.156C399.094 334.355 399.388 334.619 399.622 334.932C399.856 335.244 400.026 335.6 400.122 335.979C400.219 336.357 400.24 336.751 400.184 337.137C400.128 337.524 399.996 337.895 399.797 338.231C399.597 338.567 399.333 338.86 399.02 339.094C398.707 339.328 398.351 339.497 397.972 339.594C397.594 339.69 397.2 339.711 396.813 339.655C396.426 339.599 396.054 339.468 395.718 339.268V339.268Z" fill="#BEFF9F"/>
<path d="M388.589 351.257L353.187 330.239C352.85 330.04 352.555 329.776 352.32 329.464C352.086 329.151 351.915 328.795 351.818 328.416C351.721 328.037 351.699 327.643 351.755 327.256C351.811 326.869 351.942 326.496 352.142 326.16C352.342 325.824 352.607 325.53 352.92 325.296C353.234 325.062 353.591 324.892 353.97 324.796C354.349 324.7 354.744 324.68 355.131 324.737C355.519 324.793 355.891 324.926 356.227 325.126L391.629 346.144C391.967 346.343 392.262 346.606 392.497 346.919C392.733 347.232 392.904 347.588 393.002 347.967C393.099 348.347 393.121 348.741 393.065 349.129C393.009 349.516 392.878 349.889 392.678 350.226C392.478 350.562 392.213 350.856 391.899 351.09C391.585 351.324 391.228 351.494 390.848 351.59C390.468 351.686 390.073 351.706 389.685 351.648C389.297 351.591 388.925 351.458 388.589 351.257V351.257Z" fill="#BEFF9F"/>
<path d="M422.63 339.189L347.518 294.595C346.843 294.191 346.356 293.535 346.164 292.773C345.971 292.01 346.088 291.202 346.491 290.526C346.893 289.85 347.546 289.361 348.309 289.165C349.071 288.97 349.88 289.084 350.559 289.483L425.67 334.076C426.008 334.275 426.303 334.538 426.539 334.851C426.774 335.164 426.945 335.52 427.043 335.899C427.14 336.278 427.162 336.673 427.106 337.061C427.051 337.448 426.919 337.821 426.719 338.157C426.519 338.494 426.254 338.788 425.94 339.022C425.626 339.256 425.269 339.426 424.889 339.522C424.509 339.617 424.114 339.637 423.726 339.58C423.339 339.523 422.966 339.39 422.63 339.189V339.189Z" fill="#BEFF9F"/>
<path d="M408.314 396.179L395.46 388.548C394.307 387.862 393.475 386.747 393.145 385.448C392.815 384.15 393.014 382.773 393.699 381.621C394.384 380.469 395.499 379.636 396.798 379.305C398.098 378.973 399.476 379.171 400.629 379.854L413.484 387.486C414.638 388.171 415.472 389.286 415.803 390.585C416.134 391.885 415.935 393.262 415.249 394.415C414.564 395.568 413.448 396.402 412.147 396.732C410.847 397.063 409.468 396.864 408.314 396.179Z" fill="#76FF36"/>
<path d="M432.297 272.269C446.848 272.269 458.645 260.483 458.645 245.943C458.645 231.403 446.848 219.617 432.297 219.617C417.745 219.617 405.949 231.403 405.949 245.943C405.949 260.483 417.745 272.269 432.297 272.269Z" fill="#BEFF9F"/>
<path d="M0.310303 352.924H356.873V146.665C356.871 145.12 356.256 143.638 355.162 142.546C354.068 141.453 352.586 140.838 351.039 140.836H6.14419C4.59751 140.838 3.11467 141.453 2.02099 142.546C0.927305 143.638 0.312089 145.12 0.310303 146.665V352.924Z" fill="url(#paint1_linear_39_2)"/>
<path d="M345.856 148.898H11.3268V338.661H345.856V148.898Z" fill="#272727"/>
<path d="M4.79663e-10 347.343V372.795C-1.15332e-05 373.85 0.207978 374.895 0.612093 375.87C1.01621 376.845 1.60854 377.731 2.35526 378.477C3.10197 379.223 3.98847 379.815 4.96411 380.219C5.93975 380.622 6.98543 380.83 8.04146 380.83H139.646V431.061H137.898C137.76 431.061 137.625 431.088 137.498 431.141C137.371 431.193 137.256 431.27 137.159 431.367C137.062 431.464 136.985 431.579 136.932 431.706C136.88 431.832 136.853 431.968 136.853 432.105V435.599C136.853 435.736 136.88 435.872 136.932 435.998C136.985 436.125 137.062 436.24 137.159 436.337C137.256 436.434 137.371 436.511 137.498 436.563C137.625 436.616 137.76 436.643 137.898 436.643H219.596C219.733 436.643 219.869 436.616 219.996 436.563C220.122 436.511 220.238 436.434 220.335 436.337C220.432 436.24 220.509 436.125 220.561 435.998C220.614 435.872 220.641 435.736 220.641 435.599V432.105C220.641 431.968 220.614 431.832 220.561 431.706C220.509 431.579 220.432 431.464 220.335 431.367C220.238 431.27 220.122 431.193 219.996 431.141C219.869 431.088 219.733 431.061 219.596 431.061H217.848V380.83H349.452C350.508 380.83 351.554 380.622 352.529 380.219C353.505 379.815 354.392 379.223 355.138 378.477C355.885 377.731 356.477 376.845 356.881 375.87C357.286 374.895 357.494 373.85 357.494 372.795V347.343L4.79663e-10 347.343Z" fill="#3F3D56"/>
<path d="M297.45 212.362H139.029C138.031 212.362 137.073 211.966 136.367 211.26C135.661 210.555 135.264 209.598 135.264 208.6C135.264 207.602 135.661 206.645 136.367 205.939C137.073 205.234 138.031 204.837 139.029 204.837H297.45C298.448 204.837 299.406 205.234 300.112 205.939C300.819 206.645 301.215 207.602 301.215 208.6C301.215 209.598 300.819 210.555 300.112 211.26C299.406 211.966 298.448 212.362 297.45 212.362V212.362Z" fill="#BEFF9F"/>
<path d="M244.294 229.347H192.185C191.186 229.347 190.228 228.95 189.522 228.245C188.816 227.539 188.419 226.582 188.419 225.584C188.419 224.586 188.816 223.629 189.522 222.923C190.228 222.218 191.186 221.821 192.185 221.821H244.294C245.293 221.821 246.25 222.218 246.957 222.923C247.663 223.629 248.06 224.586 248.06 225.584C248.06 226.582 247.663 227.539 246.957 228.245C246.25 228.95 245.293 229.347 244.294 229.347V229.347Z" fill="#BEFF9F"/>
<path d="M244.294 263.799H192.185C191.186 263.799 190.228 263.402 189.522 262.697C188.816 261.991 188.419 261.034 188.419 260.036C188.419 259.038 188.816 258.081 189.522 257.375C190.228 256.67 191.186 256.273 192.185 256.273H244.294C245.293 256.273 246.25 256.67 246.957 257.375C247.663 258.081 248.06 259.038 248.06 260.036C248.06 261.034 247.663 261.991 246.957 262.697C246.25 263.402 245.293 263.799 244.294 263.799Z" fill="#BEFF9F"/>
<path d="M244.294 281.445H192.185C191.69 281.445 191.201 281.347 190.744 281.158C190.287 280.969 189.872 280.692 189.522 280.343C189.173 279.993 188.895 279.578 188.706 279.122C188.517 278.665 188.419 278.176 188.419 277.682C188.419 277.188 188.517 276.699 188.706 276.242C188.895 275.786 189.173 275.371 189.522 275.022C189.872 274.672 190.287 274.395 190.744 274.206C191.201 274.017 191.69 273.92 192.185 273.92H244.294C244.788 273.92 245.278 274.017 245.735 274.206C246.192 274.395 246.607 274.672 246.957 275.022C247.306 275.371 247.584 275.786 247.773 276.242C247.962 276.699 248.059 277.188 248.059 277.682C248.059 278.176 247.962 278.665 247.773 279.122C247.584 279.578 247.306 279.993 246.957 280.343C246.607 280.692 246.192 280.969 245.735 281.158C245.278 281.347 244.788 281.445 244.294 281.445V281.445Z" fill="#BEFF9F"/>
<path d="M273.518 246.331H162.961C161.962 246.331 161.004 245.935 160.298 245.229C159.592 244.523 159.195 243.566 159.195 242.568C159.195 241.571 159.592 240.614 160.298 239.908C161.004 239.202 161.962 238.806 162.961 238.806H273.518C274.517 238.806 275.475 239.202 276.181 239.908C276.887 240.614 277.284 241.571 277.284 242.568C277.284 243.566 276.887 244.523 276.181 245.229C275.475 245.935 274.517 246.331 273.518 246.331V246.331Z" fill="#BEFF9F"/>
<path d="M294.812 317.574H275.892C274.193 317.574 272.565 316.9 271.364 315.7C270.163 314.5 269.488 312.873 269.488 311.176C269.488 309.479 270.163 307.851 271.364 306.652C272.565 305.452 274.193 304.778 275.892 304.778H294.812C296.51 304.778 298.139 305.452 299.34 306.652C300.541 307.851 301.215 309.479 301.215 311.176C301.215 312.873 300.541 314.5 299.34 315.7C298.139 316.9 296.51 317.574 294.812 317.574V317.574Z" fill="#76FF36"/>
<path d="M89.2133 271.137C107.403 271.137 122.148 256.403 122.148 238.229C122.148 220.054 107.403 205.321 89.2133 205.321C71.0238 205.321 56.2783 220.054 56.2783 238.229C56.2783 256.403 71.0238 271.137 89.2133 271.137Z" fill="#76FF36"/>
<path d="M474.619 438H0.871492C0.640807 437.999 0.419803 437.907 0.25692 437.744C0.0940368 437.581 0.00256348 437.36 0.00256348 437.129C0.00256348 436.899 0.0940368 436.678 0.25692 436.514C0.419803 436.351 0.640807 436.259 0.871492 436.259H474.619C474.85 436.259 475.071 436.351 475.234 436.514C475.397 436.678 475.488 436.899 475.488 437.129C475.488 437.36 475.397 437.581 475.234 437.744C475.071 437.907 474.85 437.999 474.619 438V438Z" fill="#BEFF9F"/>
<path d="M178.436 144.867C179.122 144.867 179.678 144.312 179.678 143.627C179.678 142.942 179.122 142.387 178.436 142.387C177.751 142.387 177.195 142.942 177.195 143.627C177.195 144.312 177.751 144.867 178.436 144.867Z" fill="white"/>
</g>
<defs>
<linearGradient id="paint0_linear_39_2" x1="336.5" y1="69.5" x2="468.5" y2="281.5" gradientUnits="userSpaceOnUse">
<stop stop-color="#76FF36"/>
<stop offset="1" stop-color="#05FF82"/>
</linearGradient>
<linearGradient id="paint1_linear_39_2" x1="22.5" y1="157.5" x2="357" y2="346.5" gradientUnits="userSpaceOnUse">
<stop stop-color="#05FF82"/>
<stop offset="1" stop-color="#76FF36"/>
</linearGradient>
<clipPath id="clip0_39_2">
<rect width="533" height="438" fill="white"/>
</clipPath>
</defs>
</svg>
